<?xml version="1.0" standalone="no"?><!-- Generator: Gravit.io --><svg xmlns="http://www.w3.org/2000/svg" xmlns:xlink="http://www.w3.org/1999/xlink" style="isolation:isolate" viewBox="0 0 108 114" width="108" height="114"><defs><clipPath id="_clipPath_83DbKZRPMDGsJKeG6nAwa4qv6xmwcBZN"><rect width="108" height="114"/></clipPath></defs><g clip-path="url(#_clipPath_83DbKZRPMDGsJKeG6nAwa4qv6xmwcBZN)"><g id="Group"><g id="XMLID_3095_"><g id="XMLID_3096_"><g id="XMLID_3101_"><path d=" M 95.4 110.9 L 13.1 110.9 C 10.2 110.9 7.9 108.6 7.9 105.7 L 7.9 69.8 C 7.9 66.9 10.2 64.6 13.1 64.6 C 16 64.6 18.3 66.9 18.3 69.8 L 18.3 100.5 L 90.2 100.5 L 90.2 69.8 C 90.2 66.9 92.5 64.6 95.4 64.6 C 98.3 64.6 100.6 66.9 100.6 69.8 L 100.6 105.7 C 100.6 108.6 98.3 110.9 95.4 110.9 Z " fill="rgb(255,255,255)"/></g><g id="XMLID_3097_"><path d=" M 54.1 87.7 C 52.8 87.7 51.6 87.2 50.8 86.2 L 21 52.4 C 19.9 51.1 19.6 49.2 20.3 47.7 C 21 46.1 22.6 45.1 24.3 45.1 L 39.9 45.1 L 39.9 23.3 C 39.9 16.3 45.6 10.6 52.6 10.6 L 55.5 10.6 C 62.5 10.6 68.2 16.3 68.2 23.3 L 68.2 45 L 83.8 45 C 85.5 45 87.1 46 87.8 47.6 C 88.5 49.2 88.2 51 87.1 52.3 L 57.4 86.2 C 56.6 87.2 55.3 87.7 54.1 87.7 Z  M 34.1 53.9 L 54.1 76.6 L 74.1 53.9 L 63.8 53.9 C 61.4 53.9 59.4 51.9 59.4 49.5 L 59.4 23.3 C 59.4 21.2 57.7 19.5 55.6 19.5 L 52.7 19.5 C 50.6 19.5 48.9 21.2 48.9 23.3 L 48.9 49.5 C 48.9 51.9 46.9 53.9 44.5 53.9 L 34.1 53.9 L 34.1 53.9 Z " fill="rgb(255,255,255)"/></g></g></g></g></g></svg>