<?xml version="1.0" standalone="no"?><!-- Generator: Gravit.io --><svg xmlns="http://www.w3.org/2000/svg" xmlns:xlink="http://www.w3.org/1999/xlink" style="isolation:isolate" viewBox="0 0 512 512" width="512" height="512"><defs><clipPath id="_clipPath_RuWcWQkMlWfi5krvUpLi8QdY1oq2kwOG"><rect width="512" height="512"/></clipPath></defs><g clip-path="url(#_clipPath_RuWcWQkMlWfi5krvUpLi8QdY1oq2kwOG)"><g id="Group"><g id="Group"><path d=" M 382.56 233.376 C 379.968 227.648 374.272 224 368 224 L 304 224 L 304 16 C 304 7.168 296.832 0 288 0 L 224 0 C 215.168 0 208 7.168 208 16 L 208 224 L 144 224 C 137.728 224 132.032 227.68 129.44 233.376 C 126.816 239.104 127.84 245.792 131.968 250.528 L 243.968 378.528 C 247.008 382.016 251.392 384 256 384 C 260.608 384 264.992 381.984 268.032 378.528 L 380.032 250.528 C 384.192 245.824 385.152 239.104 382.56 233.376 Z " fill="rgb(255,255,255)"/></g></g></g></svg>